<?xml version="1.0" standalone="no"?><!DOCTYPE svg PUBLIC "-//W3C//DTD SVG 1.1//EN" "http://www.w3.org/Graphics/SVG/1.1/DTD/svg11.dtd"><svg t="1724315153224" class="icon" viewBox="0 0 1024 1024" version="1.1" xmlns="http://www.w3.org/2000/svg" p-id="7231" xmlns:xlink="http://www.w3.org/1999/xlink" width="200" height="200"><path d="M757.333333 469.333333c53.333333 0 96 42.666667 96 96S810.666667 661.333333 757.333333 661.333333 661.333333 618.666667 661.333333 565.333333s42.666667-96 96-96M209.066667 593.066667l202.666666-91.733334 55.466667 123.733334L192 789.333333h518.4L462.933333 424.533333c-10.666667-17.066667-34.133333-23.466667-53.333333-14.933333l-234.666667 106.666667c-21.333333 10.666667-29.866667 34.133333-21.333333 55.466666 8.533333 21.333333 34.133333 32 55.466667 21.333334z" fill="#FFBA57" p-id="7232"></path><path d="M938.666667 768c-64 0-85.333333-42.666667-85.333334-42.666667s-21.333333 42.666667-85.333333 42.666667-85.333333-42.666667-85.333333-42.666667-21.333333 42.666667-85.333334 42.666667-85.333333-42.666667-85.333333-42.666667-21.333333 42.666667-85.333333 42.666667-85.333333-42.666667-85.333334-42.666667-21.333333 42.666667-85.333333 42.666667-85.333333-42.666667-85.333333-42.666667-21.333333 42.666667-85.333334 42.666667v170.666667h853.333334v-170.666667z" fill="#7E8CCF" p-id="7233"></path><path d="M938.666667 810.666667c-64 0-85.333333-42.666667-85.333334-42.666667s-21.333333 42.666667-85.333333 42.666667-85.333333-42.666667-85.333333-42.666667-21.333333 42.666667-85.333334 42.666667-85.333333-42.666667-85.333333-42.666667-21.333333 42.666667-85.333333 42.666667-85.333333-42.666667-85.333334-42.666667-21.333333 42.666667-85.333333 42.666667-85.333333-42.666667-85.333333-42.666667-21.333333 42.666667-85.333334 42.666667v128h853.333334v-128z" fill="#C5CAE9" p-id="7234"></path></svg>