<?xml version="1.0" standalone="no"?><!DOCTYPE svg PUBLIC "-//W3C//DTD SVG 1.1//EN" "http://www.w3.org/Graphics/SVG/1.1/DTD/svg11.dtd"><svg t="1724306447150" class="icon" viewBox="0 0 1024 1024" version="1.1" xmlns="http://www.w3.org/2000/svg" p-id="6117" xmlns:xlink="http://www.w3.org/1999/xlink" width="200" height="200"><path d="M957.738 127.274c-8.344-8.328-8.344-21.844 0-30.172 8.312-8.328 21.844-8.344 30.156 0l15.094 15.078c8.342 8.328 8.342 21.844 0 30.172-8.344 8.326-21.844 8.326-30.156 0l-15.094-15.078zM881.99 51.51c-8.344-8.328-8.344-21.844-0.032-30.172 8.342-8.328 21.842-8.328 30.186 0l15.094 15.078c8.312 8.344 8.312 21.844 0 30.17a21.332 21.332 0 0 1-30.188 0l-15.06-15.076z" fill="#434A54" p-id="6118"></path><path d="M942.644 172.522l-15.094-15.094c-8.312-8.328-8.312-21.826 0-30.17 8.344-8.328 21.844-8.328 30.188 0l15.062 15.094c8.344 8.326 8.344 21.842 0 30.17-8.312 8.328-21.812 8.328-30.156 0zM866.896 96.758l-15.094-15.078c-8.342-8.328-8.342-21.842 0-30.17 8.344-8.328 21.844-8.328 30.156 0l15.092 15.092a21.294 21.294 0 0 1 0 30.156c-8.312 8.344-21.842 8.344-30.154 0z" fill="#434A54" p-id="6119"></path><path d="M1023.986 81.68c0-5.656-2.25-11.078-6.25-15.094L957.394 6.26c-8.312-8.328-21.844-8.328-30.156 0L484.344 449.124c-8.312 8.344-8.312 21.842 0 30.186l60.34 60.312a21.354 21.354 0 0 0 30.186 0L1017.736 96.758c4-4 6.25-9.422 6.25-15.078z" fill="#965353" p-id="6120"></path><path d="M1017.736 66.586L957.394 6.26c-8.312-8.328-21.844-8.328-30.156 0l-90.528 90.498 90.528 90.498 90.498-90.498a21.324 21.324 0 0 0 0-30.172z" fill="#7F4545" p-id="6121"></path><path d="M604.778 419.218c-60.404-60.404-112.09-89.78-157.962-89.78-29.624 0-56.25 12.376-79.154 36.812-18.062 19.28-30.906 42.686-41.218 61.498-5.906 10.782-12.032 21.906-15.812 25.688-10.562 10.56-50.78 24.498-86.248 36.81-59.404 20.562-126.746 43.906-162.652 79.81-47.438 47.438-68.656 112.656-59.72 183.686 8.062 64.28 40.842 129.308 89.904 178.338 57.53 57.532 135.964 91.906 209.838 91.906 59.186 0 111.81-21.344 152.184-61.718 35.062-35.062 55.842-98.246 74.218-153.996 12.654-38.5 25.78-78.28 38.904-91.402 4.998-5 17.436-12.062 29.466-18.844 37.812-21.376 89.562-50.624 97.248-107.186 6.688-48.936-22.434-105.06-88.996-171.622z" fill="#F4BE8E" p-id="6122"></path><path d="M528.156 808.272c12.654-38.5 25.78-78.28 38.904-91.402 4.998-5 17.436-12.062 29.466-18.844 37.812-21.376 89.562-50.624 97.248-107.186 6.688-48.936-22.436-105.06-88.998-171.622a549.57 549.57 0 0 0-7.594-7.468c61.25 63.248 87.938 116.966 81.532 163.996-7.718 56.592-59.468 85.842-97.25 107.186-12.06 6.812-24.498 13.844-29.498 18.844-13.124 13.124-26.216 52.936-38.904 91.434-18.344 55.718-39.156 118.904-74.218 153.964-40.374 40.376-92.998 61.718-152.152 61.718h-0.032c-70.654 0-145.498-31.438-202.214-84.532a287.76 287.76 0 0 0 7.468 7.718c57.53 57.532 135.964 91.906 209.838 91.906 59.186 0 111.81-21.344 152.184-61.718 35.064-35.06 55.846-98.244 74.22-153.994z" fill="#FFFFFF" opacity=".2" p-id="6123"></path><path d="M484.094 630.4c-25 25-65.5 25-90.498 0-25-24.998-25-65.53 0-90.496 25-25 65.498-25 90.498 0 25 24.968 25 65.498 0 90.496z" fill="#434A54" p-id="6124"></path><path d="M438.846 670.462c-22.782 0-44.218-8.876-60.342-24.968-33.28-33.28-33.28-87.404 0-120.684 16.124-16.124 37.562-25 60.342-25 22.812 0 44.218 8.876 60.342 25 16.124 16.124 25 37.53 25 60.342 0 22.782-8.876 44.216-25 60.342-16.124 16.094-37.562 24.968-60.342 24.968z m0-127.996c-11.406 0-22.124 4.438-30.156 12.5-16.656 16.654-16.656 43.716 0 60.342 8.03 8.06 18.75 12.498 30.156 12.498s22.124-4.438 30.156-12.498a42.39 42.39 0 0 0 12.5-30.156 42.506 42.506 0 0 0-12.468-30.186 42.412 42.412 0 0 0-30.188-12.5z" fill="#EAAD7A" p-id="6125"></path><path d="M378.502 787.49a21.346 21.346 0 0 1-15.092-6.25l-120.654-120.684c-8.344-8.312-8.344-21.812 0-30.156 8.312-8.344 21.842-8.344 30.156 0l120.684 120.686c8.312 8.312 8.312 21.842 0 30.154a21.296 21.296 0 0 1-15.094 6.25z" fill="#965353" p-id="6126"></path><path d="M821.46 232.348c-8.312 8.344-21.844 8.344-30.156 0-8.344-8.312-8.344-21.842 0-30.154 8.312-8.344 21.844-8.344 30.156 0 8.344 8.312 8.344 21.842 0 30.154zM761.118 292.692c-8.312 8.342-21.844 8.342-30.156 0-8.342-8.312-8.342-21.844 0-30.156 8.312-8.344 21.844-8.344 30.156 0 8.342 8.312 8.342 21.842 0 30.156zM700.776 353.034c-8.312 8.344-21.81 8.344-30.154 0s-8.344-21.844 0-30.156c8.344-8.344 21.842-8.344 30.154 0 8.344 8.312 8.344 21.812 0 30.156z" fill="#434A54" p-id="6127"></path></svg>